<svg id="Layer_2" data-name="Layer 2" fill="white" xmlns="http://www.w3.org/2000/svg" viewBox="0 0 222.06 221.94"><defs><style>.cls-1{fill:#231f20;}</style></defs><title>clear</title><path class="cls-1" d="M111,219.47A108.5,108.5,0,1,1,219.53,111,108.62,108.62,0,0,1,111,219.47Zm0-197a88.5,88.5,0,1,0,88.5,88.5A88.6,88.6,0,0,0,111,22.47Z"/><g id="sOjlRN.tif"><path d="M110.73,91.49c9.25-9.27,17.93-18,26.65-26.7,5.83-5.81,9.91-5.8,15.76,0,11.18,11,11.19,12.43.12,23.5Q142.48,99,131.73,109.85a12.57,12.57,0,0,0-1.12,1.74c8.57,8.47,17.24,17,25.85,25.57,5.92,5.9,5.93,9.91.17,15.76-11.24,11.42-12.58,11.44-23.87.11-7.27-7.29-14.5-14.6-22.11-22.27-8.44,8.48-16.4,16.5-24.39,24.49-6.52,6.53-10.22,6.37-16.86.2C59.29,146,59,142.34,69.52,132.54c7.29-6.78,14.16-14,21.61-21.44C82.07,102.13,73.4,93.62,64.8,85c-5.76-5.75-5.69-9.92.07-15.76C76,58,77.34,58,88.38,69.08,95.67,76.37,102.94,83.68,110.73,91.49Z"/></g></svg>
