<svg fill="white" id="Layer_1" data-name="Layer 1" xmlns="http://www.w3.org/2000/svg" viewBox="0 0 178.91 51.27"><defs><style>.cls-1{fill:#231f20;}</style></defs><title>logo</title><path class="cls-1" d="M0,0H19.72a23.27,23.27,0,0,1,9.83,2.11,26.8,26.8,0,0,1,8,5.61A26.06,26.06,0,0,1,43,15.88a25.16,25.16,0,0,1,0,19.45,25.94,25.94,0,0,1-5.37,8.19,26.46,26.46,0,0,1-8,5.64,23.41,23.41,0,0,1-9.89,2.11H0V0ZM13.33,40h3.06a16.55,16.55,0,0,0,6.19-1.09,13.22,13.22,0,0,0,4.59-3A12.82,12.82,0,0,0,30,31.38a16.2,16.2,0,0,0,1-5.75,15.77,15.77,0,0,0-1-5.71,12.8,12.8,0,0,0-7.48-7.55,16.37,16.37,0,0,0-6.12-1.09H13.33V40Z"/><path class="cls-1" d="M85.2,51.27H68.61L55.9,31.55V51.27H42.57V0H63.31a20.37,20.37,0,0,1,7.48,1.26,14.09,14.09,0,0,1,8.4,8.47,17.55,17.55,0,0,1,1.05,6.12,15,15,0,0,1-2.82,9.49,14.21,14.21,0,0,1-8.33,4.93ZM55.9,22.92h2.52a9.72,9.72,0,0,0,6.05-1.63,5.58,5.58,0,0,0,2.11-4.69,5.58,5.58,0,0,0-2.11-4.69,9.72,9.72,0,0,0-6.05-1.63H55.9V22.92Z"/><path class="cls-1" d="M79.9,51.27V0H93.23l24.62,31.35V0H131.1V51.27H117.84L93.23,19.92V51.27H79.9Z"/><path class="cls-1" d="M144.29,21.15L160.55,0H177L156.67,24.28l22.24,27H161.63L144.29,29V51.27H131V0h13.33V21.15Z"/></svg>
