<svg fill="white" id="Layer_1" data-name="Layer 1" xmlns="http://www.w3.org/2000/svg" viewBox="0 0 100 100"><title>search</title><g id="CIuSde.tif"><path d="M88.26,98.26c-3.14-.22-5.13-3-7.29-5.11C73.71,86,66.39,79,59.12,71.86c-0.71-.69-1.23-1-2.26-0.46a37.72,37.72,0,0,1-14.1,4.45C24,78,7.63,64.88,2.45,46.69a30.59,30.59,0,0,1-.71-11.06A36.6,36.6,0,0,1,17.81,8.1C32.26-2.06,53.61.11,65.66,13a37.16,37.16,0,0,1,6,43.26c-0.93,1.78-.77,2.69.64,4Q84.1,71.44,95.7,82.83a8.83,8.83,0,0,1,0,12.87S93.55,98.63,88.26,98.26ZM38.67,61.13A22.33,22.33,0,1,0,16.49,38.59,22.4,22.4,0,0,0,38.67,61.13Z"/></g></svg>
